<svg xmlns="http://www.w3.org/2000/svg" width="1400" height="420" viewBox="0 0 1400 420" role="img" aria-labelledby="title desc">
  <title id="title">XLSX Viewer</title>
  <desc id="desc">A dark app-style hero showing an XLSX workbook table preview.</desc>
  <rect width="1400" height="420" fill="#16181d"/>
  <rect x="48" y="48" width="1304" height="324" rx="18" fill="#202329" stroke="#3b414d"/>
  <rect x="48" y="48" width="1304" height="52" rx="18" fill="#282b32"/>
  <circle cx="82" cy="74" r="8" fill="#ff5f57"/>
  <circle cx="108" cy="74" r="8" fill="#ffbd2e"/>
  <circle cx="134" cy="74" r="8" fill="#28c840"/>
  <text x="80" y="166" fill="#f4f4f5" font-family="Inter, Arial, sans-serif" font-size="48" font-weight="750">XLSX Viewer</text>
  <text x="82" y="206" fill="#a9adb8" font-family="Inter, Arial, sans-serif" font-size="20">Read-only workbook values without launching Excel</text>
  <g transform="translate(82 248)">
    <rect width="96" height="34" rx="8" fill="#334155"/>
    <text x="23" y="23" fill="#f8fafc" font-family="Inter, Arial, sans-serif" font-size="14" font-weight="700">Sheet 1</text>
    <rect x="108" width="96" height="34" rx="8" fill="#27272a" stroke="#45454c"/>
    <text x="131" y="23" fill="#d4d4d8" font-family="Inter, Arial, sans-serif" font-size="14" font-weight="700">Sheet 2</text>
    <rect x="216" width="112" height="34" rx="8" fill="#17251e" stroke="#28684a"/>
    <text x="238" y="23" fill="#62d88f" font-family="Inter, Arial, sans-serif" font-size="14" font-weight="700">Read-only</text>
  </g>
  <g transform="translate(680 112)">
    <rect width="604" height="244" rx="12" fill="#111827" stroke="#3b414d"/>
    <rect x="24" y="22" width="556" height="38" rx="8" fill="#29313f"/>
    <text x="48" y="47" fill="#d7dce8" font-family="Menlo, Consolas, monospace" font-size="15">#</text>
    <text x="104" y="47" fill="#7dd3fc" font-family="Menlo, Consolas, monospace" font-size="15">A</text>
    <text x="238" y="47" fill="#7dd3fc" font-family="Menlo, Consolas, monospace" font-size="15">B</text>
    <text x="372" y="47" fill="#7dd3fc" font-family="Menlo, Consolas, monospace" font-size="15">C</text>
    <text x="506" y="47" fill="#7dd3fc" font-family="Menlo, Consolas, monospace" font-size="15">D</text>
    <g fill="#e8df72" font-family="Menlo, Consolas, monospace" font-size="15">
      <text x="48" y="92">1</text><text x="104" y="92">Project</text><text x="238" y="92">Status</text><text x="372" y="92">Rows</text><text x="506" y="92">Owner</text>
      <text x="48" y="132">2</text><text x="104" y="132">Vault</text><text x="238" y="132">ready</text><text x="372" y="132">227</text><text x="506" y="132">Viggo</text>
      <text x="48" y="172">3</text><text x="104" y="172">ETM</text><text x="238" y="172">review</text><text x="372" y="172">48</text><text x="506" y="172">BAM</text>
      <text x="48" y="212">4</text><text x="104" y="212">AI data</text><text x="238" y="212">done</text><text x="372" y="212">1000</text><text x="506" y="212">local</text>
    </g>
    <g stroke="#29313f">
      <line x1="80" y1="22" x2="80" y2="222"/>
      <line x1="210" y1="22" x2="210" y2="222"/>
      <line x1="344" y1="22" x2="344" y2="222"/>
      <line x1="478" y1="22" x2="478" y2="222"/>
      <line x1="24" y1="74" x2="580" y2="74"/>
      <line x1="24" y1="114" x2="580" y2="114"/>
      <line x1="24" y1="154" x2="580" y2="154"/>
      <line x1="24" y1="194" x2="580" y2="194"/>
    </g>
  </g>
</svg>
