<svg xmlns="http://www.w3.org/2000/svg" width="1280" height="820" viewBox="0 0 1280 820" role="img" aria-labelledby="title desc">
  <title id="title">XLSX Viewer screenshot</title>
  <desc id="desc">A dark themed workbook table with sheet tabs, filter input, summary pills, and sticky spreadsheet-style headers.</desc>
  <rect width="1280" height="820" fill="#1f2228"/>
  <rect x="58" y="58" width="1164" height="704" rx="14" fill="#20242b" stroke="#3a404b"/>
  <text x="92" y="112" fill="#f4f4f5" font-family="Inter, Arial, sans-serif" font-size="26" font-weight="750">sample-workbook.xlsx</text>
  <text x="92" y="142" fill="#a8adb8" font-family="Menlo, Consolas, monospace" font-size="15">20_files/2026-06/sample-workbook.xlsx</text>
  <rect x="870" y="86" width="190" height="38" rx="8" fill="#171a20" stroke="#3a404b"/>
  <text x="908" y="111" fill="#a8adb8" font-family="Inter, Arial, sans-serif" font-size="17">Filter</text>
  <rect x="1080" y="86" width="44" height="38" rx="8" fill="#2d333d" stroke="#4a5260"/>
  <text x="1095" y="111" fill="#f8fafc" font-family="Inter, Arial, sans-serif" font-size="18">↻</text>
  <line x1="92" y1="164" x2="1188" y2="164" stroke="#3a404b"/>
  <g font-family="Inter, Arial, sans-serif" font-size="15" font-weight="700">
    <rect x="92" y="190" width="102" height="34" rx="8" fill="#334155"/>
    <text x="119" y="212" fill="#f8fafc">Sheet 1</text>
    <rect x="204" y="190" width="102" height="34" rx="8" fill="#252a32" stroke="#464c58"/>
    <text x="231" y="212" fill="#d4d4d8">Sheet 2</text>
    <rect x="316" y="190" width="102" height="34" rx="8" fill="#252a32" stroke="#464c58"/>
    <text x="343" y="212" fill="#d4d4d8">Archive</text>
  </g>
  <g font-family="Menlo, Consolas, monospace" font-size="15">
    <rect x="92" y="244" width="86" height="28" rx="14" fill="#252a32" stroke="#464c58"/>
    <text x="111" y="263" fill="#e5e7eb">3 sheets</text>
    <rect x="188" y="244" width="88" height="28" rx="14" fill="#252a32" stroke="#464c58"/>
    <text x="207" y="263" fill="#e5e7eb">Sheet 1</text>
    <rect x="286" y="244" width="80" height="28" rx="14" fill="#252a32" stroke="#464c58"/>
    <text x="305" y="263" fill="#e5e7eb">227 rows</text>
    <rect x="376" y="244" width="96" height="28" rx="14" fill="#252a32" stroke="#464c58"/>
    <text x="395" y="263" fill="#e5e7eb">4 columns</text>
  </g>
  <g transform="translate(92 294)">
    <rect width="1096" height="422" rx="8" fill="#171a20" stroke="#3a404b"/>
    <rect width="1096" height="42" rx="8" fill="#262b34"/>
    <g fill="#d8dee9" font-family="Inter, Arial, sans-serif" font-size="17" font-weight="700">
      <text x="18" y="28">#</text>
      <text x="92" y="28">A</text>
      <text x="330" y="28">B</text>
      <text x="568" y="28">C</text>
      <text x="806" y="28">D</text>
    </g>
    <g fill="#e8df72" font-family="Inter, Arial, sans-serif" font-size="17">
      <text x="18" y="78">1</text><text x="92" y="78">english</text><text x="330" y="78">nederlands</text><text x="568" y="78">context</text><text x="806" y="78">toelichting</text>
      <text x="18" y="124">2</text><text x="92" y="124">meeting</text><text x="330" y="124">vergadering</text><text x="568" y="124">zakelijk</text><text x="806" y="124">Preciezere term</text>
      <text x="18" y="170">3</text><text x="92" y="170">feedback</text><text x="330" y="170">terugkoppeling</text><text x="568" y="170">zakelijk</text><text x="806" y="170">Reactie werkt breder</text>
      <text x="18" y="216">4</text><text x="92" y="216">deadline</text><text x="330" y="216">streefdatum</text><text x="568" y="216">informeel</text><text x="806" y="216">Zachter bij planning</text>
      <text x="18" y="262">5</text><text x="92" y="262">skills</text><text x="330" y="262">vaardigheden</text><text x="568" y="262">zakelijk</text><text x="806" y="262">HR-context</text>
      <text x="18" y="308">6</text><text x="92" y="308">team</text><text x="330" y="308">werkgroep</text><text x="568" y="308">zakelijk</text><text x="806" y="308">Projectmatig</text>
    </g>
    <g stroke="#303641">
      <line x1="68" y1="0" x2="68" y2="422"/>
      <line x1="300" y1="0" x2="300" y2="422"/>
      <line x1="538" y1="0" x2="538" y2="422"/>
      <line x1="776" y1="0" x2="776" y2="422"/>
      <line x1="0" y1="42" x2="1096" y2="42"/>
      <line x1="0" y1="88" x2="1096" y2="88"/>
      <line x1="0" y1="134" x2="1096" y2="134"/>
      <line x1="0" y1="180" x2="1096" y2="180"/>
      <line x1="0" y1="226" x2="1096" y2="226"/>
      <line x1="0" y1="272" x2="1096" y2="272"/>
      <line x1="0" y1="318" x2="1096" y2="318"/>
    </g>
  </g>
</svg>
